#N canvas 193 100 700 500 12;
#X floatatom 301 75 5 0 0 0 - - -, f 5;
#X obj 240 75 tgl 15 0 empty empty empty 17 7 0 10 -262144 -1 -1 1
1;
#X obj 240 124 metro 40;
#X msg 240 149 0 0 -12 2 6 36 0 -2 8 2 6 40;
#X obj 240 174 list.choice;
#X obj 240 199 + 60;
#X text 367 120 it's our scale. change it live!;
#X obj 240 224 mtof;
#X obj 240 249 osc.square~;
#X obj 240 274 *~ 0.1;
#X obj 240 299 dac~;
#X connect 0 0 2 1;
#X connect 1 0 2 0;
#X connect 2 0 3 0;
#X connect 3 0 4 0;
#X connect 4 0 5 0;
#X connect 5 0 7 0;
#X connect 7 0 8 0;
#X connect 8 0 9 0;
#X connect 9 0 10 0;
#X connect 9 0 10 1;
