#N canvas 220 92 768 581 12;
#X floatatom 291 65 5 0 0 0 - - -, f 5;
#X obj 230 65 tgl 15 0 empty empty empty 17 7 0 10 -262144 -1 -1 0
1;
#X msg 230 204 0;
#X msg 271 204 0;
#X msg 314 204 -12;
#X msg 360 204 2;
#X msg 401 204 6;
#X obj 230 238 + 60;
#X msg 444 204 36;
#X obj 230 263 mtof;
#X obj 230 288 phasor~;
#X obj 230 373 dac~;
#X obj 230 338 *~ 0.1;
#X obj 230 114 metro 40;
#X obj 230 140 random 12;
#X obj 230 169 select 0 1 2 3 4 5 6 7 8 9 10 11;
#X msg 490 204 0;
#X msg 620 204 2;
#X msg 661 204 6;
#X msg 574 204 8;
#X msg 531 204 -2;
#X msg 704 204 40;
#X obj 230 313 expr~ $v1 > 0.5;
#X connect 0 0 13 1;
#X connect 1 0 13 0;
#X connect 2 0 7 0;
#X connect 3 0 7 0;
#X connect 4 0 7 0;
#X connect 5 0 7 0;
#X connect 6 0 7 0;
#X connect 7 0 9 0;
#X connect 8 0 7 0;
#X connect 9 0 10 0;
#X connect 10 0 22 0;
#X connect 12 0 11 0;
#X connect 12 0 11 1;
#X connect 13 0 14 0;
#X connect 14 0 15 0;
#X connect 15 0 2 0;
#X connect 15 1 3 0;
#X connect 15 2 4 0;
#X connect 15 3 5 0;
#X connect 15 4 6 0;
#X connect 15 5 8 0;
#X connect 15 6 16 0;
#X connect 15 7 20 0;
#X connect 15 8 19 0;
#X connect 15 9 17 0;
#X connect 15 10 18 0;
#X connect 15 11 21 0;
#X connect 16 0 7 0;
#X connect 17 0 7 0;
#X connect 18 0 7 0;
#X connect 19 0 7 0;
#X connect 20 0 7 0;
#X connect 21 0 7 0;
#X connect 22 0 12 0;
