#N canvas 0 23 700 500 12;
#X obj 98 59 list.seq;
#X obj 98 84 msg set;
#X msg 98 109 -12 -11 -10 -9 -8 -7 -6 -5 -4 -3 -2 -1 0 1 2 3 4 5 6
7 8 9 10 11 12;
#X msg 98 34 -12 13;
#X connect 0 0 1 0;
#X connect 1 0 2 0;
#X connect 3 0 0 0;
