#N canvas 220 92 768 581 12;
#X floatatom 291 65 5 0 0 0 - - -, f 5;
#X obj 230 65 tgl 15 0 empty empty empty 17 7 0 10 -262144 -1 -1 0
1;
#X msg 230 204 0;
#X obj 230 140 random 6;
#X obj 230 169 select 0 1 2 3 4 5;
#X msg 271 204 0;
#X msg 314 204 -12;
#X msg 360 204 2;
#X msg 401 204 6;
#X obj 230 238 + 60;
#X msg 444 204 36;
#X obj 230 263 mtof;
#X obj 230 288 phasor~;
#X obj 230 373 dac~;
#X obj 230 338 *~ 0.1;
#X obj 230 114 metro 40;
#X obj 230 313 expr~ $v1 > 0.5;
#X connect 0 0 15 1;
#X connect 1 0 15 0;
#X connect 2 0 9 0;
#X connect 3 0 4 0;
#X connect 4 0 2 0;
#X connect 4 1 5 0;
#X connect 4 2 6 0;
#X connect 4 3 7 0;
#X connect 4 4 8 0;
#X connect 4 5 10 0;
#X connect 5 0 9 0;
#X connect 6 0 9 0;
#X connect 7 0 9 0;
#X connect 8 0 9 0;
#X connect 9 0 11 0;
#X connect 10 0 9 0;
#X connect 11 0 12 0;
#X connect 12 0 16 0;
#X connect 14 0 13 0;
#X connect 14 0 13 1;
#X connect 15 0 3 0;
#X connect 16 0 14 0;
