#N canvas 0 23 700 500 12;
#X floatatom 379 204 5 0 0 0 - - -, f 5;
#X obj 379 228 list.gen;
#X msg 462 228 100;
#X msg 379 278 100 100 100 100 100 100 100;
#X obj 379 253 msg set;
#X connect 0 0 1 0;
#X connect 1 0 4 0;
#X connect 1 1 2 0;
#X connect 2 0 1 1;
#X connect 4 0 3 0;
