#N canvas 197 91 363 438 12;
#X obj 69 88 list.gen;
#X obj 69 213 osc~;
#X obj 69 238 *~ 0.1;
#X obj 129 213 osc~;
#X obj 129 238 *~ 0.1;
#X obj 189 213 osc~;
#X obj 189 238 *~ 0.1;
#X obj 129 283 dac~;
#X obj 69 188 unpack f f f f;
#X obj 249 213 osc~;
#X obj 249 238 *~ 0.1;
#X msg 69 61 4;
#X obj 160 113 list.choice;
#X obj 160 138 + 60;
#X obj 160 163 mtof;
#X msg 160 88 0 2 7 5 12 9;
#X connect 0 0 8 0;
#X connect 0 1 15 0;
#X connect 1 0 2 0;
#X connect 2 0 7 0;
#X connect 3 0 4 0;
#X connect 4 0 7 0;
#X connect 5 0 6 0;
#X connect 6 0 7 1;
#X connect 8 0 1 0;
#X connect 8 1 3 0;
#X connect 8 2 5 0;
#X connect 8 3 9 0;
#X connect 9 0 10 0;
#X connect 10 0 7 1;
#X connect 11 0 0 0;
#X connect 12 0 13 0;
#X connect 13 0 14 0;
#X connect 14 0 0 1;
#X connect 15 0 12 0;
