#N canvas 0 23 700 500 12;
#X floatatom 379 204 5 0 0 0 - - -, f 5;
#X obj 379 228 list.gen;
#X msg 379 278 9 0 7 3 9 0 2 5 4 9 4 3 1;
#X obj 379 253 msg set;
#X obj 460 228 random 10;
#X connect 0 0 1 0;
#X connect 1 0 3 0;
#X connect 1 1 4 0;
#X connect 3 0 2 0;
#X connect 4 0 1 1;
